<svg width="16" height="13" viewBox="0 0 16 13" fill="none" xmlns="http://www.w3.org/2000/svg">
<path d="M15.4375 5.92969L14.5625 2.45703C14.3984 1.71875 13.6602 0.625 12.2383 0.625C11.8008 0.625 11.6094 0.707031 11.0625 0.898438C10.8164 0.980469 10.707 1.22656 10.7891 1.44531L10.9258 1.88281C10.9805 2.04688 11.1445 2.15625 11.3359 2.15625C11.418 2.15625 11.4727 2.15625 11.8281 2.01953C12.5391 1.80078 13.1406 2.18359 13.3047 2.78516L14.0977 6.01172C13.5234 5.65625 12.8672 5.4375 12.1562 5.4375C10.625 5.4375 9.33984 6.33984 8.76562 7.625H7.20703C6.63281 6.33984 5.34766 5.4375 3.84375 5.4375C3.10547 5.4375 2.44922 5.65625 1.875 6.01172L2.66797 2.78516C2.83203 2.18359 3.43359 1.80078 4.14453 2.01953C4.5 2.15625 4.55469 2.15625 4.63672 2.15625C4.82812 2.15625 4.99219 2.04688 5.04688 1.88281L5.18359 1.44531C5.26562 1.22656 5.15625 0.980469 4.91016 0.898438C4.36328 0.707031 4.17188 0.625 3.73438 0.625C2.33984 0.625 1.57422 1.71875 1.41016 2.45703L0.535156 5.92969C0.179688 7.40625 0.125 7.98047 0.125 9.15625C0.125 11.2344 1.76562 12.875 3.84375 12.875C5.8125 12.875 7.39844 11.3438 7.53516 9.375H8.4375C8.57422 11.3438 10.1602 12.875 12.1289 12.875C14.207 12.875 15.8477 11.2344 15.8477 9.15625C15.875 7.98047 15.793 7.40625 15.4375 5.92969ZM3.84375 11.5625C2.50391 11.5625 1.4375 10.4961 1.4375 9.15625C1.4375 7.84375 2.50391 6.75 3.84375 6.75C5.15625 6.75 6.25 7.84375 6.25 9.15625C6.25 10.4961 5.15625 11.5625 3.84375 11.5625ZM12.1562 11.5625C10.8164 11.5625 9.75 10.4961 9.75 9.15625C9.75 7.84375 10.8164 6.75 12.1562 6.75C13.4688 6.75 14.5625 7.84375 14.5625 9.15625C14.5625 10.4961 13.4688 11.5625 12.1562 11.5625Z" fill="#050F21"/>
</svg>
