<svg width="48" height="48" viewBox="0 0 48 48" fill="none" xmlns="http://www.w3.org/2000/svg">
<rect width="48" height="48" rx="8" fill="#F1F2F4"/>
<path d="M38.2402 20.1523L37.3418 19.2539C37.1621 19.0742 36.8926 19.0742 36.7129 19.2539L32.0859 23.9258L29.9297 21.7695C29.75 21.5898 29.4805 21.5898 29.3008 21.7695L28.4473 22.668C28.2676 22.8477 28.2676 23.1172 28.4473 23.2969L31.7266 26.666C31.9062 26.8457 32.2207 26.8457 32.4004 26.666L38.2402 20.7812C38.4199 20.6016 38.4199 20.332 38.2402 20.1523ZM19.6875 25.8125C23.2363 25.8125 26.1562 22.9375 26.1562 19.3438C26.1562 15.7949 23.2363 12.875 19.6875 12.875C16.0938 12.875 13.2188 15.7949 13.2188 19.3438C13.2188 22.9375 16.0938 25.8125 19.6875 25.8125ZM19.6875 15.0312C22.0234 15.0312 24 17.0078 24 19.3438C24 21.7246 22.0234 23.6562 19.6875 23.6562C17.3066 23.6562 15.375 21.7246 15.375 19.3438C15.375 17.0078 17.3066 15.0312 19.6875 15.0312ZM23.6855 26.5312C22.3828 26.5312 21.7988 27.25 19.6875 27.25C17.5312 27.25 16.9473 26.5312 15.6445 26.5312C12.3203 26.5312 9.625 29.2715 9.625 32.5957V33.7188C9.625 34.9316 10.5684 35.875 11.7812 35.875H27.5938C28.7617 35.875 29.75 34.9316 29.75 33.7188V32.5957C29.75 29.2715 27.0098 26.5312 23.6855 26.5312ZM27.5938 33.7188H11.7812V32.5957C11.7812 30.4395 13.4883 28.6875 15.6445 28.6875C16.3184 28.6875 17.3516 29.4062 19.6875 29.4062C21.9785 29.4062 23.0117 28.6875 23.6855 28.6875C25.8418 28.6875 27.5938 30.4395 27.5938 32.5957V33.7188Z" fill="#1D458A"/>
</svg>
