<svg width="244" height="61" viewBox="0 0 244 61" fill="none" xmlns="http://www.w3.org/2000/svg">
<path d="M13.4955 13.7333C13.4955 13.7333 13.761 17.1556 17.7433 18C18.053 14.6222 13.4955 13.7333 13.4955 13.7333Z" fill="#1D458A"/>
<path d="M8.62836 8.88889C8.58411 14.6667 10.4425 21.3333 10.4425 21.3333L13.8496 19.8222C13.8496 19.8222 13.5841 16.4 13.4956 13.7333C26.1505 13.7333 32.1239 17.2889 35.2655 19.2889C26.1505 9.11111 11.416 8.97778 8.62836 8.88889ZM12.6992 13.7778C12.2567 13.7778 11.8584 13.4222 11.8584 12.9333C11.8584 12.4444 12.2124 12.0889 12.6992 12.0889C13.1416 12.0889 13.5399 12.4444 13.5399 12.9333C13.5399 13.4222 13.1859 13.7778 12.6992 13.7778ZM16.1062 13.0222C15.8407 13.0222 15.6638 12.8444 15.6638 12.5778C15.6638 12.3111 15.8407 12.1333 16.1062 12.1333C16.3717 12.1333 16.5487 12.3111 16.5487 12.5778C16.5487 12.8444 16.3717 13.0222 16.1062 13.0222ZM19.4248 13.0667C19.1593 13.0667 18.9823 12.8889 18.9823 12.6222C18.9823 12.3556 19.1593 12.1778 19.4248 12.1778C19.6903 12.1778 19.8673 12.3556 19.8673 12.6222C19.8673 12.8889 19.6903 13.0667 19.4248 13.0667ZM22.6107 13.6C22.3452 13.6 22.1682 13.4222 22.1682 13.1556C22.1682 12.8889 22.3452 12.7111 22.6107 12.7111C22.8761 12.7111 23.0531 12.8889 23.0531 13.1556C23.0531 13.4222 22.8319 13.6 22.6107 13.6ZM25.9735 14.4889C25.708 14.4889 25.531 14.3111 25.531 14.0444C25.531 13.7778 25.708 13.6 25.9735 13.6C26.239 13.6 26.416 13.7778 26.416 14.0444C26.416 14.3111 26.1947 14.4889 25.9735 14.4889ZM29.2478 15.8667C28.9823 15.8667 28.8053 15.6889 28.8053 15.4222C28.8053 15.1556 28.9823 14.9778 29.2478 14.9778C29.5133 14.9778 29.6903 15.1556 29.6903 15.4222C29.6903 15.6889 29.5133 15.8667 29.2478 15.8667Z" fill="#1D458A"/>
<path d="M29.8673 6.88889C29.8673 6.88889 27.6106 9.51111 29.8673 12.9333C32.4779 10.7556 29.8673 6.88889 29.8673 6.88889Z" fill="#1D458A"/>
<path d="M29.8674 0C25.7523 4.04444 22.3452 10.0444 22.3452 10.0444L25.7966 11.4222C25.7966 11.4222 28.0532 8.8 29.8674 6.88889C38.8054 15.9111 40.5311 22.6667 41.3275 26.3111C42.0797 12.6222 31.77 2 29.8674 0ZM29.2921 6.35556C28.9824 6.04444 28.9824 5.51111 29.2921 5.15556C29.6019 4.84444 30.1328 4.84444 30.4868 5.15556C30.7966 5.46667 30.7966 6 30.4868 6.35556C30.1771 6.66667 29.6461 6.66667 29.2921 6.35556ZM32.2125 8.22222C32.0355 8.04444 32.0355 7.77778 32.2125 7.6C32.3895 7.42222 32.655 7.42222 32.832 7.6C33.0089 7.77778 33.0089 8.04444 32.832 8.22222C32.655 8.4 32.3895 8.4 32.2125 8.22222ZM34.5576 10.6667C34.3806 10.4889 34.3806 10.2222 34.5576 10.0444C34.7346 9.86667 35.0001 9.86667 35.1771 10.0444C35.3541 10.2222 35.3541 10.4889 35.1771 10.6667C35.0001 10.8444 34.7346 10.8444 34.5576 10.6667ZM36.416 13.2889C36.239 13.1111 36.239 12.8444 36.416 12.6667C36.5488 12.4444 36.8143 12.4 37.0355 12.5333C37.2567 12.6667 37.301 12.9333 37.1682 13.1556C37.124 13.2 37.0797 13.2444 37.0355 13.2889C36.8585 13.4222 36.593 13.4222 36.416 13.2889ZM38.1859 16.3111C38.0532 16.0889 38.1417 15.8222 38.3187 15.6889C38.4514 15.6 38.6284 15.6 38.8054 15.6889C38.9824 15.8667 38.9824 16.1333 38.8054 16.3111C38.6284 16.4444 38.3629 16.4444 38.1859 16.3111ZM39.5134 19.6444C39.3364 19.4667 39.3364 19.2 39.5134 19.0222C39.6904 18.8444 39.9558 18.8444 40.1328 19.0222C40.3098 19.2 40.3098 19.4667 40.1328 19.6444C39.9558 19.7778 39.6904 19.7778 39.5134 19.6444Z" fill="#1D458A"/>
<path d="M46.1947 13.9111C46.1947 13.9111 42.7876 14.1333 41.9469 18.1778C45.2655 18.4889 46.1947 13.9111 46.1947 13.9111Z" fill="#1D458A"/>
<path d="M51.0175 9.06668C45.2653 8.97779 38.6281 10.8 38.6281 10.8L40.0883 14.2667C40.0883 14.2667 43.4954 14.0445 46.1503 13.9556C46.106 26.6667 42.5219 32.6667 40.5308 35.7778C50.7078 26.6667 50.929 11.8667 51.0175 9.06668ZM46.1503 13.1556C46.1503 12.7111 46.5042 12.3111 46.991 12.3111C47.4334 12.3111 47.8317 12.6667 47.8317 13.1556C47.8317 13.6 47.4777 14 46.991 14C46.5042 14 46.1503 13.6 46.1503 13.1556ZM46.8582 16.5778C46.8582 16.3111 47.0352 16.1333 47.3007 16.1333C47.5662 16.1333 47.7432 16.3111 47.7432 16.5778C47.7432 16.8445 47.5662 17.0222 47.3007 17.0222C47.0352 17.0222 46.8582 16.8 46.8582 16.5778ZM46.814 19.9111C46.814 19.6445 46.991 19.4667 47.2565 19.4667C47.5219 19.4667 47.6989 19.6445 47.6989 19.9111C47.6989 20.1778 47.5219 20.3556 47.2565 20.3556C46.991 20.3556 46.814 20.1778 46.814 19.9111ZM46.283 23.0667C46.283 22.8 46.46 22.6222 46.7255 22.6222C46.991 22.6222 47.168 22.8 47.168 23.0667C47.168 23.3334 46.991 23.5111 46.7255 23.5111C46.46 23.5111 46.283 23.3334 46.283 23.0667ZM45.398 26.4445C45.398 26.1778 45.575 26 45.8405 26C46.106 26 46.283 26.1778 46.283 26.4445C46.283 26.7111 46.106 26.8889 45.8405 26.8889C45.575 26.8889 45.398 26.7111 45.398 26.4445ZM43.9821 29.7778C43.9821 29.5111 44.1591 29.3334 44.4246 29.3334C44.6901 29.3334 44.8671 29.5111 44.8671 29.7778C44.8671 30.0445 44.6901 30.2222 44.4246 30.2222C44.1591 30.2222 43.9821 30.0445 43.9821 29.7778Z" fill="#1D458A"/>
<path d="M53.1417 30.2222C53.1417 30.2222 50.5753 27.9556 47.124 30.1778C49.2921 32.8 53.1417 30.2222 53.1417 30.2222Z" fill="#1D458A"/>
<path d="M60.0002 30.2667C56.0179 26.0889 50.0887 22.6222 50.0887 22.6222L48.6727 26.0889C48.6727 26.0889 51.2391 28.3556 53.1418 30.2222C44.071 39.1111 37.3453 40.7556 33.6727 41.5111C47.301 42.4 57.9648 32.1778 60.0002 30.2667ZM53.6727 29.6445C53.9825 29.3333 54.5134 29.3333 54.8674 29.6445C55.1772 29.9556 55.1772 30.4889 54.8674 30.8445C54.5577 31.1556 54.0267 31.1556 53.6727 30.8445C53.363 30.4889 53.363 29.9556 53.6727 29.6445ZM51.7701 32.5778C51.9471 32.4 52.2125 32.4 52.3895 32.5778C52.5665 32.7556 52.5665 33.0222 52.3895 33.2C52.2125 33.3778 51.9471 33.3778 51.7701 33.2C51.5931 33.0222 51.5931 32.7556 51.7701 32.5778ZM49.3364 34.8445C49.5577 34.7111 49.8232 34.7556 49.9559 34.9778C50.0444 35.1111 50.0444 35.3333 49.9559 35.4667C49.7347 35.6 49.4692 35.5556 49.3364 35.3333C49.2479 35.2 49.2479 35.0222 49.3364 34.8445ZM46.7258 36.7111C46.9028 36.5333 47.1683 36.5333 47.3453 36.7111C47.5223 36.8889 47.5223 37.1556 47.3453 37.3333C47.1683 37.5111 46.9028 37.5111 46.7258 37.3333C46.5488 37.1556 46.5488 36.8889 46.7258 36.7111ZM43.717 38.4445C43.8497 38.2222 44.1152 38.1778 44.3364 38.3111C44.5577 38.4445 44.6019 38.7111 44.4692 38.9333C44.4249 38.9778 44.3807 39.0222 44.3364 39.0667C44.1152 39.2 43.8497 39.1111 43.717 38.9333C43.6285 38.7556 43.6285 38.5778 43.717 38.4445ZM40.3541 39.7778C40.5754 39.6445 40.8409 39.6889 40.9736 39.9111C41.0621 40.0445 41.0621 40.2667 40.9736 40.4C40.7524 40.5333 40.4869 40.4889 40.3541 40.2667C40.2656 40.0889 40.2656 39.9111 40.3541 39.7778Z" fill="#1D458A"/>
<path d="M46.1504 46.4445C46.1504 46.4445 45.9292 43.0222 41.9026 42.1778C41.6371 45.5111 46.1504 46.4445 46.1504 46.4445Z" fill="#1D458A"/>
<path d="M51.0177 51.3333C51.1505 45.5556 49.3363 38.8889 49.3363 38.8889L45.885 40.3556C45.885 40.3556 46.1062 43.7778 46.1947 46.4444C33.5399 46.3556 27.5664 42.7556 24.4691 40.7111C33.4956 51.0222 48.2301 51.2444 51.0177 51.3333ZM46.9469 46.4444C47.3894 46.4444 47.7877 46.8444 47.7877 47.2889C47.7877 47.7333 47.3894 48.1333 46.9469 48.1333C46.5045 48.1333 46.1062 47.7333 46.1062 47.2889C46.1062 46.8 46.5045 46.4444 46.9469 46.4444ZM43.5399 47.1556C43.8054 47.1556 43.9823 47.3333 43.9823 47.6C43.9823 47.8667 43.8054 48.0444 43.5399 48.0444C43.2744 48.0444 43.0974 47.8667 43.0974 47.6C43.0974 47.3333 43.3186 47.1556 43.5399 47.1556ZM40.2213 47.0667C40.4425 47.0222 40.708 47.1556 40.7523 47.4222C40.7965 47.6444 40.6638 47.9111 40.3983 47.9556C40.354 47.9556 40.2655 47.9556 40.2213 47.9556C40 47.9111 39.8231 47.6444 39.8673 47.4222C39.9116 47.2444 40.0443 47.1111 40.2213 47.0667ZM37.0797 46.5333C37.3452 46.5333 37.5222 46.7111 37.5222 46.9778C37.5222 47.2444 37.3452 47.4222 37.0797 47.4222C36.8142 47.4222 36.6372 47.2444 36.6372 46.9778C36.6372 46.7111 36.8142 46.5333 37.0797 46.5333ZM33.7169 45.6444C33.9824 45.6444 34.1593 45.8222 34.1593 46.0889C34.1593 46.3556 33.9824 46.5333 33.7169 46.5333C33.4514 46.5333 33.2744 46.3556 33.2744 46.0889C33.2744 45.8222 33.4514 45.6444 33.7169 45.6444ZM30.3983 44.2222C30.6638 44.2222 30.8408 44.4 30.8408 44.6667C30.8408 44.9333 30.6638 45.1111 30.3983 45.1111C30.1328 45.1111 29.9558 44.9333 29.9558 44.6667C29.9558 44.4 30.177 44.2222 30.3983 44.2222Z" fill="#1D458A"/>
<path d="M29.9114 53.2889C29.9114 53.2889 32.1238 50.6667 29.8229 47.2444C27.3008 49.4222 29.9114 53.2889 29.9114 53.2889Z" fill="#1D458A"/>
<path d="M29.9999 60.1778C34.0707 56.0889 37.3893 50.0444 37.3893 50.0444L33.8938 48.7111C33.8938 48.7111 31.6814 51.3333 29.8672 53.2889C20.8407 44.3556 19.0707 37.6 18.23 34C17.6548 47.6889 28.053 58.1333 29.9999 60.1778ZM30.4867 53.8222C30.7964 54.1333 30.7964 54.6667 30.4867 55.0222C30.1769 55.3333 29.646 55.3333 29.292 55.0222C28.9822 54.7111 28.9822 54.1778 29.292 53.8222C29.646 53.4667 30.1769 53.4667 30.4867 53.8222ZM27.5663 51.9556C27.7433 52.1333 27.7433 52.4 27.5663 52.5778C27.3893 52.7556 27.1238 52.7556 26.9469 52.5778C26.7699 52.4 26.7699 52.1333 26.9469 51.9556C27.1238 51.7778 27.3893 51.7778 27.5663 51.9556ZM25.2212 49.5556C25.3982 49.7333 25.3982 50 25.2212 50.1778C25.0442 50.3556 24.7787 50.3556 24.6017 50.1778C24.4247 50 24.4247 49.7333 24.6017 49.5556C24.7787 49.3778 25.0442 49.3778 25.2212 49.5556ZM23.3628 46.9778C23.5398 47.1556 23.5398 47.4222 23.3628 47.6C23.1858 47.7778 22.9203 47.7778 22.7433 47.6C22.5663 47.4222 22.5663 47.1556 22.7433 46.9778C22.9203 46.8 23.1858 46.8 23.3628 46.9778ZM21.5486 43.9556C21.7256 44.1333 21.7256 44.4 21.5486 44.5778C21.3716 44.7556 21.1061 44.7556 20.9292 44.5778C20.7522 44.4 20.7522 44.1333 20.9292 43.9556C21.0619 43.7778 21.3274 43.7778 21.5486 43.9556ZM20.1769 40.6667C20.3539 40.8444 20.3539 41.1111 20.1769 41.2889C20 41.4667 19.7345 41.4667 19.5575 41.2889C19.3805 41.1111 19.3805 40.8444 19.5575 40.6667C19.7345 40.4889 20 40.4889 20.1769 40.6667Z" fill="#1D458A"/>
<path d="M13.54 46.6222C13.54 46.6222 16.947 46.3556 17.7877 42.3556C14.4249 42.0444 13.54 46.6222 13.54 46.6222Z" fill="#1D458A"/>
<path d="M8.71678 51.5111C14.469 51.5556 21.1062 49.7333 21.1062 49.7333L19.6017 46.3111C19.6017 46.3111 16.1947 46.5778 13.5398 46.6667C13.5398 33.9556 17.0796 27.9556 19.0708 24.8C8.93802 33.9556 8.80528 48.7556 8.71678 51.5111ZM13.584 47.4222C13.584 47.8667 13.2301 48.2667 12.7433 48.2667C12.2566 48.2667 11.9026 47.9111 11.9026 47.4222C11.9026 46.9333 12.2566 46.5778 12.7433 46.5778C13.2301 46.5778 13.584 46.9778 13.584 47.4222ZM12.8318 44C12.8318 44.2667 12.6548 44.4444 12.3893 44.4444C12.1239 44.4444 11.9469 44.2667 11.9469 44C11.9469 43.7333 12.1239 43.5556 12.3893 43.5556C12.6548 43.5556 12.8318 43.7333 12.8318 44ZM12.8761 40.6667C12.8761 40.9333 12.6991 41.1111 12.4336 41.1111C12.1681 41.1111 11.9911 40.9333 11.9911 40.6667C11.9911 40.4 12.1681 40.2222 12.4336 40.2222C12.6991 40.2222 12.8761 40.4 12.8761 40.6667ZM13.407 37.5111C13.407 37.7778 13.2301 37.9556 12.9646 37.9556C12.6991 37.9556 12.5221 37.7778 12.5221 37.5111C12.5221 37.2444 12.6991 37.0667 12.9646 37.0667C13.2301 37.0667 13.407 37.2444 13.407 37.5111ZM14.292 34.0889C14.292 34.3555 14.115 34.5333 13.8495 34.5333C13.584 34.5333 13.407 34.3555 13.407 34.0889C13.407 33.8222 13.584 33.6444 13.8495 33.6444C14.115 33.6444 14.292 33.8667 14.292 34.0889ZM15.6637 30.8C15.6637 31.0667 15.4867 31.2444 15.2212 31.2444C14.9557 31.2444 14.7787 31.0667 14.7787 30.8C14.7787 30.5333 14.9557 30.3556 15.2212 30.3556C15.4867 30.3556 15.6637 30.5333 15.6637 30.8Z" fill="#1D458A"/>
<path d="M6.85847 30.0889C6.85847 30.0889 9.42485 32.4 12.8762 30.1778C10.7523 27.5111 6.85847 30.0889 6.85847 30.0889Z" fill="#1D458A"/>
<path d="M0 30C3.93805 34.1778 9.91151 37.6889 9.91151 37.6889L11.3274 34.2222C11.3274 34.2222 8.76106 31.9111 6.85841 30.0889C15.9292 21.2444 22.6991 19.6 26.3274 18.8444C12.7434 17.9111 2.0354 28.1333 0 30ZM6.32743 30.6667C6.0177 30.9778 5.48672 30.9778 5.13274 30.6667C4.82301 30.3556 4.82301 29.8222 5.13274 29.4667C5.44248 29.1556 5.97345 29.1556 6.32743 29.4667C6.63717 29.8222 6.63717 30.3556 6.32743 30.6667ZM8.23009 27.7333C8.0531 27.9111 7.78761 27.9111 7.61062 27.7333C7.43363 27.5556 7.43363 27.2889 7.61062 27.1111C7.78761 26.9333 8.0531 26.9333 8.23009 27.1111C8.40708 27.3333 8.40708 27.6 8.23009 27.7333ZM10.6637 25.4667C10.4867 25.6444 10.2212 25.6444 10.0442 25.4667C9.86726 25.2889 9.86726 25.0222 10.0442 24.8444C10.2212 24.6667 10.4867 24.6667 10.6637 24.8444C10.8407 24.9778 10.8407 25.2889 10.6637 25.4667ZM13.2743 23.6444C13.0531 23.7778 12.7876 23.6889 12.6549 23.5111C12.5664 23.3778 12.5664 23.2 12.6549 23.0222C12.8761 22.8889 13.1416 22.9778 13.2743 23.1556C13.4071 23.3333 13.4071 23.5111 13.2743 23.6444ZM16.3274 21.9111C16.1504 22.0889 15.885 22.0889 15.708 21.9111C15.5752 21.6889 15.6637 21.4222 15.8407 21.2889C15.9735 21.2 16.1504 21.2 16.3274 21.2889C16.5044 21.4667 16.5044 21.7333 16.3274 21.9111ZM19.646 20.6222C19.5133 20.8444 19.2478 20.8889 19.0265 20.7556C18.8053 20.6222 18.7611 20.3556 18.8938 20.1333C18.9381 20.0889 18.9823 20.0444 19.0265 20C19.2478 19.8667 19.5133 19.9556 19.646 20.1333C19.7788 20.2667 19.7788 20.4889 19.646 20.6222Z" fill="#1D458A"/>
<path d="M25.5754 22.6222C25.5754 22.6222 30.0444 24.1333 29.0267 28.4C26.77 28.0445 25.3984 26.0445 25.5754 22.6222Z" fill="#1D458A"/>
<path d="M21.3275 30C21.3275 30 24.9115 26.8889 28.0089 29.9111C26.5929 31.7333 24.1593 31.8667 21.3275 30Z" fill="#1D458A"/>
<path d="M38.4956 29.9111C38.4956 29.9111 34.9115 33.0222 31.8141 30C33.2743 28.2222 35.6637 28.0445 38.4956 29.9111Z" fill="#1D458A"/>
<path d="M25.5311 37.5556C25.5311 37.5556 24.6461 32.8889 28.8497 31.7333C29.6904 33.9111 28.5842 36.0889 25.5311 37.5556Z" fill="#1D458A"/>
<path d="M34.3364 37.5111C34.3364 37.5111 29.8674 35.9556 30.9293 31.7333C33.2302 32.1333 34.5576 34.1333 34.3364 37.5111Z" fill="#1D458A"/>
<path d="M34.2036 22.5333C34.2036 22.5333 35.0885 27.2 30.9293 28.4C30.0886 26.2222 31.1947 24.0445 34.2036 22.5333Z" fill="#1D458A"/>
<path d="M26.3274 21.7333L29.9557 19.6445L33.3185 21.6444L30.6194 23.6C30.6194 23.6 30.1327 23.7778 30.4424 22.9333C30.7522 22.0889 30.7079 21.2444 29.8672 21.1556C29.0707 21.2889 28.584 21.6 29.1592 22.9333C29.2477 23.1556 29.3362 23.8667 28.938 23.6C28.5398 23.3333 26.3716 21.7333 26.3274 21.7333Z" fill="#1D458A"/>
<path d="M20.8408 28.6667L20.9736 24.4445L24.4249 22.6222L24.6461 25.9556C24.6461 25.9556 24.5576 26.4889 24.0267 25.7333C23.4957 24.9778 22.7435 24.6222 22.2568 25.2889C21.947 26.0445 21.947 26.5778 23.4072 26.8C23.6284 26.8445 24.2922 27.1556 23.8497 27.3333L20.8408 28.6667Z" fill="#1D458A"/>
<path d="M24.4691 37.3778L20.8408 35.2889V31.3333L23.8497 32.7111C23.8497 32.7111 24.2479 33.0222 23.3629 33.1556C22.478 33.2889 21.8143 33.7778 22.1683 34.5778C22.6992 35.2 23.186 35.4667 24.0709 34.2667C24.2479 34.0889 24.7789 33.6 24.7346 34.1333C24.6904 34.6667 24.4249 37.3778 24.4691 37.3778Z" fill="#1D458A"/>
<path d="M33.4512 38.3556L29.8229 40.4444L26.4601 38.4L29.1592 36.4889C29.1592 36.4889 29.6459 36.3111 29.292 37.1556C28.938 38 29.0265 38.8444 29.8672 38.9333C30.6636 38.8 31.1504 38.5333 30.5751 37.1556C30.5309 36.9333 30.3981 36.1778 30.7964 36.4889C31.1946 36.8 33.4512 38.4 33.4512 38.3556Z" fill="#1D458A"/>
<path d="M38.938 31.3333L38.8495 35.5111L35.3981 37.3778L35.1326 34.0889C35.1326 34.0889 35.2211 33.5556 35.7521 34.2667C36.2831 34.9778 37.0353 35.3333 37.5663 34.6667C37.876 33.9111 37.876 33.3333 36.4158 33.1556C36.1946 33.1111 35.4866 32.8444 35.9734 32.6222C36.4601 32.4 38.938 31.3333 38.938 31.3333Z" fill="#1D458A"/>
<path d="M35.3541 22.6222L38.9824 24.7111V28.6667L35.9735 27.3333C35.9735 27.3333 35.531 26.9778 36.4602 26.8445C37.3895 26.7111 38.0089 26.2222 37.6992 25.4667C37.1682 24.8445 36.6815 24.5778 35.8408 25.7778C35.6638 25.9556 35.1328 26.4445 35.1771 25.9111C35.2213 25.3778 35.3541 22.6667 35.3541 22.6222Z" fill="#1D458A"/>
<path d="M30.9734 29.9555C30.9734 30.5333 30.5309 30.9778 29.9557 30.9778C29.3805 30.9778 28.938 30.5333 28.938 29.9555C28.938 29.3778 29.3805 28.9333 29.9557 28.9333C30.5309 28.9333 30.9734 29.3778 30.9734 29.9555Z" fill="#1D458A"/>
<path d="M77.9787 15L78.9134 12.3054H82.8906L83.8203 15H85.451L81.7869 4.81818H80.0121L76.348 15H77.9787ZM79.3608 11.0128L80.8622 6.66761H80.9418L82.4432 11.0128H79.3608ZM86.6429 15H92.7729V13.7074H88.6564V13.6378L92.6337 8.44744V7.36364H86.7772V8.65625H90.7793V8.72585L86.6429 13.9808V15ZM97.2411 7.20952C95.5756 7.20952 94.3974 8.02983 94.0593 9.27273L95.4663 9.52628C95.7347 8.8054 96.381 8.4375 97.2262 8.4375C98.4989 8.4375 99.354 9.26278 99.3938 10.7344H93.9648V11.2614C93.9648 14.0206 95.6154 15.0994 97.3455 15.0994C99.4734 15.0994 100.875 13.4787 100.875 11.1321C100.875 8.76065 99.4933 7.20952 97.2411 7.20952ZM99.3888 11.848C99.3292 12.9318 98.5437 13.8714 97.3356 13.8714C96.1822 13.8714 95.4265 13.0163 95.4215 11.848H99.3888ZM102.525 15H104.011V10.3366C104.011 9.33736 104.782 8.61648 105.836 8.61648C106.144 8.61648 106.492 8.67116 106.611 8.70597V7.28409C106.462 7.2642 106.169 7.24929 105.98 7.24929C105.085 7.24929 104.319 7.75639 104.041 8.5767H103.961V7.36364H102.525V15ZM108.017 15H109.469V13.8118H109.593C109.862 14.299 110.408 15.1491 111.8 15.1491C113.65 15.1491 114.992 13.6676 114.992 11.1967C114.992 8.72088 113.63 7.2642 111.786 7.2642C110.369 7.2642 109.857 8.12926 109.593 8.60156H109.504V4.81818H108.017V15ZM109.474 11.1818C109.474 9.58594 110.17 8.52699 111.467 8.52699C112.815 8.52699 113.491 9.66548 113.491 11.1818C113.491 12.7131 112.795 13.8814 111.467 13.8814C110.19 13.8814 109.474 12.7876 109.474 11.1818ZM118.884 15.169C120.146 15.169 120.857 14.5277 121.141 13.956H121.2V15H122.652V9.92898C122.652 7.70668 120.902 7.2642 119.689 7.2642C118.307 7.2642 117.034 7.82102 116.537 9.21307L117.934 9.53125C118.153 8.98935 118.71 8.46733 119.709 8.46733C120.669 8.46733 121.161 8.96946 121.161 9.83452V9.86932C121.161 10.4112 120.604 10.4013 119.232 10.5604C117.785 10.7294 116.303 11.1072 116.303 12.8423C116.303 14.3438 117.432 15.169 118.884 15.169ZM119.207 13.9759C118.367 13.9759 117.76 13.598 117.76 12.8622C117.76 12.0668 118.466 11.7834 119.326 11.669C119.808 11.6044 120.952 11.4751 121.166 11.2614V12.2457C121.166 13.1506 120.445 13.9759 119.207 13.9759ZM125.298 17.8636C126.526 17.8636 127.302 17.2223 127.744 16.0192L130.901 7.37855L129.295 7.36364L127.362 13.2898H127.282L125.348 7.36364H123.757L126.551 15.0994L126.367 15.6065C125.989 16.6207 125.457 16.7053 124.642 16.4815L124.284 17.6996C124.463 17.7791 124.851 17.8636 125.298 17.8636ZM135.245 15.1541C137.05 15.1541 138.218 14.0703 138.382 12.5838H136.936C136.747 13.4091 136.105 13.8963 135.255 13.8963C133.997 13.8963 133.187 12.8473 133.187 11.1818C133.187 9.54616 134.012 8.51705 135.255 8.51705C136.2 8.51705 136.776 9.11364 136.936 9.82955H138.382C138.223 8.28835 136.965 7.2642 135.23 7.2642C133.078 7.2642 131.686 8.88494 131.686 11.2166C131.686 13.5185 133.028 15.1541 135.245 15.1541ZM142.194 15.169C143.457 15.169 144.168 14.5277 144.451 13.956H144.511V15H145.963V9.92898C145.963 7.70668 144.213 7.2642 143 7.2642C141.618 7.2642 140.345 7.82102 139.848 9.21307L141.245 9.53125C141.463 8.98935 142.02 8.46733 143.02 8.46733C143.979 8.46733 144.471 8.96946 144.471 9.83452V9.86932C144.471 10.4112 143.914 10.4013 142.542 10.5604C141.096 10.7294 139.614 11.1072 139.614 12.8423C139.614 14.3438 140.743 15.169 142.194 15.169ZM142.517 13.9759C141.677 13.9759 141.071 13.598 141.071 12.8622C141.071 12.0668 141.777 11.7834 142.637 11.669C143.119 11.6044 144.262 11.4751 144.476 11.2614V12.2457C144.476 13.1506 143.755 13.9759 142.517 13.9759ZM149.429 10.4659C149.429 9.24787 150.175 8.55185 151.209 8.55185C152.218 8.55185 152.83 9.21307 152.83 10.3217V15H154.316V10.1428C154.316 8.25355 153.277 7.2642 151.716 7.2642C150.568 7.2642 149.817 7.79616 149.464 8.60653H149.369V7.36364H147.943V15H149.429V10.4659ZM160.134 15H161.67V11.147H163.759C163.793 11.147 163.823 11.147 163.858 11.147L165.926 15H167.676L165.419 10.8786C166.667 10.4162 167.288 9.37713 167.288 8.00994C167.288 6.13565 166.125 4.81818 163.763 4.81818H160.134V15ZM161.67 9.82457V6.13565H163.599C165.116 6.13565 165.742 6.85653 165.742 8.00994C165.742 9.15838 165.116 9.82457 163.619 9.82457H161.67ZM172.234 15.1541C173.899 15.1541 175.078 14.3338 175.416 13.0909L174.009 12.8374C173.74 13.5582 173.094 13.9261 172.249 13.9261C170.976 13.9261 170.121 13.1009 170.081 11.6293H175.51V11.1023C175.51 8.34304 173.86 7.2642 172.129 7.2642C170.002 7.2642 168.6 8.88494 168.6 11.2315C168.6 13.603 169.982 15.1541 172.234 15.1541ZM170.086 10.5156C170.146 9.43182 170.931 8.49219 172.139 8.49219C173.293 8.49219 174.048 9.3473 174.053 10.5156H170.086ZM182.882 9.22798C182.574 8.03977 181.644 7.2642 179.993 7.2642C178.268 7.2642 177.045 8.17401 177.045 9.52628C177.045 10.6101 177.701 11.331 179.133 11.6491L180.426 11.9325C181.162 12.0966 181.505 12.4247 181.505 12.902C181.505 13.4936 180.873 13.956 179.899 13.956C179.009 13.956 178.437 13.5732 178.258 12.8224L176.821 13.0412C177.07 14.3935 178.194 15.1541 179.909 15.1541C181.753 15.1541 183.031 14.1747 183.031 12.7926C183.031 11.7138 182.345 11.0476 180.943 10.7244L179.73 10.446C178.89 10.2472 178.527 9.96378 178.532 9.44673C178.527 8.86009 179.163 8.44247 180.008 8.44247C180.933 8.44247 181.36 8.95455 181.534 9.46662L182.882 9.22798ZM184.665 17.8636H186.152V13.8118H186.241C186.51 14.299 187.057 15.1491 188.449 15.1491C190.298 15.1491 191.64 13.6676 191.64 11.1967C191.64 8.72088 190.278 7.2642 188.434 7.2642C187.017 7.2642 186.505 8.12926 186.241 8.60156H186.117V7.36364H184.665V17.8636ZM186.122 11.1818C186.122 9.58594 186.818 8.52699 188.116 8.52699C189.463 8.52699 190.139 9.66548 190.139 11.1818C190.139 12.7131 189.443 13.8814 188.116 13.8814C186.838 13.8814 186.122 12.7876 186.122 11.1818ZM198.143 11.8331C198.148 13.1307 197.184 13.7472 196.349 13.7472C195.429 13.7472 194.792 13.081 194.792 12.0419V7.36364H193.306V12.2209C193.306 14.1151 194.345 15.0994 195.812 15.0994C196.96 15.0994 197.741 14.4929 198.094 13.6776H198.173V15H199.635V7.36364H198.143V11.8331ZM201.751 15H203.203V13.8118H203.327C203.596 14.299 204.143 15.1491 205.535 15.1491C207.384 15.1491 208.727 13.6676 208.727 11.1967C208.727 8.72088 207.364 7.2642 205.52 7.2642C204.103 7.2642 203.591 8.12926 203.327 8.60156H203.238V4.81818H201.751V15ZM203.208 11.1818C203.208 9.58594 203.904 8.52699 205.202 8.52699C206.549 8.52699 207.225 9.66548 207.225 11.1818C207.225 12.7131 206.529 13.8814 205.202 13.8814C203.924 13.8814 203.208 12.7876 203.208 11.1818ZM211.882 4.81818H210.396V15H211.882V4.81818ZM213.882 15H215.369V7.36364H213.882V15ZM214.633 6.18537C215.145 6.18537 215.572 5.78764 215.572 5.30043C215.572 4.81321 215.145 4.41051 214.633 4.41051C214.116 4.41051 213.693 4.81321 213.693 5.30043C213.693 5.78764 214.116 6.18537 214.633 6.18537ZM217.368 15H218.855V12.2905L219.596 11.5497L222.191 15H224.015L220.714 10.6399L223.807 7.36364H222.027L218.984 10.5952H218.855V4.81818H217.368V15ZM227.384 15.169C228.646 15.169 229.357 14.5277 229.641 13.956H229.7V15H231.152V9.92898C231.152 7.70668 229.402 7.2642 228.189 7.2642C226.807 7.2642 225.534 7.82102 225.037 9.21307L226.434 9.53125C226.653 8.98935 227.21 8.46733 228.209 8.46733C229.169 8.46733 229.661 8.96946 229.661 9.83452V9.86932C229.661 10.4112 229.104 10.4013 227.732 10.5604C226.285 10.7294 224.803 11.1072 224.803 12.8423C224.803 14.3438 225.932 15.169 227.384 15.169ZM227.707 13.9759C226.867 13.9759 226.26 13.598 226.26 12.8622C226.26 12.0668 226.966 11.7834 227.826 11.669C228.308 11.6044 229.452 11.4751 229.666 11.2614V12.2457C229.666 13.1506 228.945 13.9759 227.707 13.9759ZM238.854 9.22798C238.546 8.03977 237.616 7.2642 235.966 7.2642C234.241 7.2642 233.018 8.17401 233.018 9.52628C233.018 10.6101 233.674 11.331 235.106 11.6491L236.398 11.9325C237.134 12.0966 237.477 12.4247 237.477 12.902C237.477 13.4936 236.846 13.956 235.871 13.956C234.982 13.956 234.41 13.5732 234.231 12.8224L232.794 13.0412C233.043 14.3935 234.166 15.1541 235.881 15.1541C237.726 15.1541 239.004 14.1747 239.004 12.7926C239.004 11.7138 238.317 11.0476 236.915 10.7244L235.702 10.446C234.862 10.2472 234.499 9.96378 234.504 9.44673C234.499 8.86009 235.136 8.44247 235.981 8.44247C236.906 8.44247 237.333 8.95455 237.507 9.46662L238.854 9.22798ZM240.638 15H242.124V7.36364H240.638V15ZM81.0163 35.1392C83.6761 35.1392 85.3814 33.1307 85.3814 30.4112V29.4467C85.3814 26.5384 83.6214 24.679 80.733 24.679C79.6044 24.679 78.3615 24.9624 77.8196 25.2905L78.1626 26.5781C78.9183 26.2649 79.8132 26.1009 80.6037 26.1009C82.7415 26.1009 83.706 27.3636 83.706 29.4467V29.571H76.9347V30.5256C76.9347 33.4389 78.5604 35.1392 81.0163 35.1392ZM83.6861 30.8736C83.5518 32.5888 82.6271 33.7372 80.9964 33.7372C79.5199 33.7372 78.6001 32.8026 78.5952 31.0874V30.8736H83.6861ZM87.2942 35H88.7807V30.2919C88.7807 29.2628 89.5016 28.5469 90.3468 28.5469C91.1721 28.5469 91.7438 29.0938 91.7438 29.924V35H93.2253V30.1328C93.2253 29.2131 93.7871 28.5469 94.7566 28.5469C95.5421 28.5469 96.1884 28.9844 96.1884 30.0185V35H97.6749V29.8793C97.6749 28.1342 96.7005 27.2642 95.3184 27.2642C94.2196 27.2642 93.3944 27.7912 93.0265 28.6065H92.9469C92.6138 27.7713 91.9128 27.2642 90.8936 27.2642C89.8844 27.2642 89.1337 27.7663 88.8155 28.6065H88.7211V27.3636H87.2942V35ZM102.6 27.2095C100.935 27.2095 99.7567 28.0298 99.4187 29.2727L100.826 29.5263C101.094 28.8054 101.74 28.4375 102.586 28.4375C103.858 28.4375 104.713 29.2628 104.753 30.7344H99.3242V31.2614C99.3242 34.0206 100.975 35.0994 102.705 35.0994C104.833 35.0994 106.235 33.4787 106.235 31.1321C106.235 28.7607 104.853 27.2095 102.6 27.2095ZM104.748 31.848C104.689 32.9318 103.903 33.8714 102.695 33.8714C101.542 33.8714 100.786 33.0163 100.781 31.848H104.748ZM107.884 35H109.371V32.2905L110.111 31.5497L112.706 35H114.531L111.23 30.6399L114.322 27.3636H112.542L109.5 30.5952H109.371V24.8182H107.884V35ZM125.915 27.3636H124.319L122.39 33.2401H122.31L120.376 27.3636H118.781L121.555 35H123.146L125.915 27.3636ZM129.972 27.2095C128.306 27.2095 127.128 28.0298 126.79 29.2727L128.197 29.5263C128.465 28.8054 129.112 28.4375 129.957 28.4375C131.229 28.4375 132.085 29.2628 132.124 30.7344H126.695V31.2614C126.695 34.0206 128.346 35.0994 130.076 35.0994C132.204 35.0994 133.606 33.4787 133.606 31.1321C133.606 28.7607 132.224 27.2095 129.972 27.2095ZM132.119 31.848C132.06 32.9318 131.274 33.8714 130.066 33.8714C128.913 33.8714 128.157 33.0163 128.152 31.848H132.119ZM142.977 35.1392C145.637 35.1392 147.342 33.1307 147.342 30.4112V29.4467C147.342 26.5384 145.582 24.679 142.694 24.679C141.565 24.679 140.322 24.9624 139.781 25.2905L140.124 26.5781C140.879 26.2649 141.774 26.1009 142.565 26.1009C144.702 26.1009 145.667 27.3636 145.667 29.4467V29.571H138.896V30.5256C138.896 33.4389 140.521 35.1392 142.977 35.1392ZM145.647 30.8736C145.513 32.5888 144.588 33.7372 142.957 33.7372C141.481 33.7372 140.561 32.8026 140.556 31.0874V30.8736H145.647ZM150.742 30.4659C150.742 29.2479 151.512 28.5518 152.571 28.5518C153.595 28.5518 154.207 29.2031 154.207 30.3217V35H155.693V30.1428C155.693 28.2386 154.649 27.2642 153.078 27.2642C151.89 27.2642 151.174 27.7812 150.816 28.6065H150.722V24.8182H149.255V35H150.742V30.4659ZM159.899 35.169C161.162 35.169 161.873 34.5277 162.156 33.956H162.216V35H163.668V29.929C163.668 27.7067 161.918 27.2642 160.705 27.2642C159.323 27.2642 158.05 27.821 157.553 29.2131L158.95 29.5312C159.169 28.9893 159.725 28.4673 160.725 28.4673C161.684 28.4673 162.176 28.9695 162.176 29.8345V29.8693C162.176 30.4112 161.619 30.4013 160.247 30.5604C158.801 30.7294 157.319 31.1072 157.319 32.8423C157.319 34.3438 158.448 35.169 159.899 35.169ZM160.222 33.9759C159.382 33.9759 158.776 33.598 158.776 32.8622C158.776 32.0668 159.482 31.7834 160.342 31.669C160.824 31.6044 161.968 31.4751 162.181 31.2614V32.2457C162.181 33.1506 161.46 33.9759 160.222 33.9759ZM167.134 24.8182H165.648V35H167.134V24.8182ZM169.134 35H170.621V27.3636H169.134V35ZM169.885 26.1854C170.397 26.1854 170.824 25.7876 170.824 25.3004C170.824 24.8132 170.397 24.4105 169.885 24.4105C169.368 24.4105 168.945 24.8132 168.945 25.3004C168.945 25.7876 169.368 26.1854 169.885 26.1854ZM174.107 30.4659C174.107 29.2479 174.853 28.5518 175.887 28.5518C176.896 28.5518 177.507 29.2131 177.507 30.3217V35H178.994V30.1428C178.994 28.2536 177.955 27.2642 176.394 27.2642C175.245 27.2642 174.495 27.7962 174.142 28.6065H174.047V27.3636H172.62V35H174.107V30.4659ZM180.988 35H182.474V27.3636H180.988V35ZM181.738 26.1854C182.25 26.1854 182.678 25.7876 182.678 25.3004C182.678 24.8132 182.25 24.4105 181.738 24.4105C181.221 24.4105 180.799 24.8132 180.799 25.3004C180.799 25.7876 181.221 26.1854 181.738 26.1854ZM185.96 30.4659C185.96 29.2479 186.706 28.5518 187.74 28.5518C188.749 28.5518 189.361 29.2131 189.361 30.3217V35H190.847V30.1428C190.847 28.2536 189.808 27.2642 188.247 27.2642C187.099 27.2642 186.348 27.7962 185.995 28.6065H185.901V27.3636H184.474V35H185.96V30.4659ZM82.6719 47.4929H84.1534C84.1087 45.8622 82.6669 44.679 80.5987 44.679C78.5554 44.679 76.9893 45.8473 76.9893 47.6023C76.9893 49.0192 78.0036 49.8494 79.6392 50.2919L80.8423 50.62C81.9311 50.9084 82.7713 51.2663 82.7713 52.1712C82.7713 53.1655 81.8217 53.8217 80.5142 53.8217C79.331 53.8217 78.3466 53.2947 78.2571 52.1861H76.7159C76.8153 54.0305 78.2422 55.169 80.5241 55.169C82.9155 55.169 84.2926 53.9112 84.2926 52.1861C84.2926 50.3516 82.657 49.6406 81.3643 49.3224L80.37 49.0639C79.5746 48.8601 78.5156 48.4872 78.5206 47.5128C78.5206 46.6477 79.3111 46.0064 80.5639 46.0064C81.7322 46.0064 82.5625 46.5533 82.6719 47.4929ZM89.2257 55.1541C91.3784 55.1541 92.7853 53.5781 92.7853 51.2166C92.7853 48.8402 91.3784 47.2642 89.2257 47.2642C87.073 47.2642 85.666 48.8402 85.666 51.2166C85.666 53.5781 87.073 55.1541 89.2257 55.1541ZM89.2306 53.9062C87.8237 53.9062 87.1674 52.6783 87.1674 51.2116C87.1674 49.75 87.8237 48.5071 89.2306 48.5071C90.6277 48.5071 91.2839 49.75 91.2839 51.2116C91.2839 52.6783 90.6277 53.9062 89.2306 53.9062ZM100.167 49.228C99.8587 48.0398 98.929 47.2642 97.2784 47.2642C95.5533 47.2642 94.3303 48.174 94.3303 49.5263C94.3303 50.6101 94.9865 51.331 96.4183 51.6491L97.7109 51.9325C98.4467 52.0966 98.7898 52.4247 98.7898 52.902C98.7898 53.4936 98.1584 53.956 97.1839 53.956C96.294 53.956 95.7223 53.5732 95.5433 52.8224L94.1065 53.0412C94.3551 54.3935 95.4787 55.1541 97.1939 55.1541C99.0384 55.1541 100.316 54.1747 100.316 52.7926C100.316 51.7138 99.63 51.0476 98.228 50.7244L97.0149 50.446C96.1747 50.2472 95.8118 49.9638 95.8168 49.4467C95.8118 48.8601 96.4482 48.4425 97.2933 48.4425C98.218 48.4425 98.6456 48.9545 98.8196 49.4666L100.167 49.228ZM101.95 55H103.437V47.3636H101.95V55ZM102.701 46.1854C103.213 46.1854 103.641 45.7876 103.641 45.3004C103.641 44.8132 103.213 44.4105 102.701 44.4105C102.184 44.4105 101.762 44.8132 101.762 45.3004C101.762 45.7876 102.184 46.1854 102.701 46.1854ZM107.659 55.169C108.922 55.169 109.633 54.5277 109.916 53.956H109.976V55H111.428V49.929C111.428 47.7067 109.678 47.2642 108.464 47.2642C107.082 47.2642 105.81 47.821 105.312 49.2131L106.71 49.5312C106.928 48.9893 107.485 48.4673 108.484 48.4673C109.444 48.4673 109.936 48.9695 109.936 49.8345V49.8693C109.936 50.4112 109.379 50.4013 108.007 50.5604C106.56 50.7294 105.079 51.1072 105.079 52.8423C105.079 54.3438 106.207 55.169 107.659 55.169ZM107.982 53.9759C107.142 53.9759 106.536 53.598 106.536 52.8622C106.536 52.0668 107.241 51.7834 108.102 51.669C108.584 51.6044 109.727 51.4751 109.941 51.2614V52.2457C109.941 53.1506 109.22 53.9759 107.982 53.9759ZM114.894 44.8182H113.407V55H114.894V44.8182ZM120.718 44.8182V55H122.18V47.6271H122.274L125.277 54.9851H126.49L129.493 47.6321H129.588V55H131.049V44.8182H129.185L125.943 52.733H125.824L122.583 44.8182H120.718ZM138.001 51.8331C138.006 53.1307 137.041 53.7472 136.206 53.7472C135.286 53.7472 134.65 53.081 134.65 52.0419V47.3636H133.163V52.2209C133.163 54.1151 134.202 55.0994 135.669 55.0994C136.817 55.0994 137.598 54.4929 137.951 53.6776H138.031V55H139.492V47.3636H138.001V51.8331ZM134.879 46.1655C135.376 46.1655 135.754 45.7628 135.754 45.3004C135.754 44.8082 135.376 44.4304 134.879 44.4304C134.411 44.4304 133.999 44.8082 133.999 45.3004C133.999 45.7628 134.411 46.1655 134.879 46.1655ZM137.802 46.1655C138.299 46.1655 138.677 45.7628 138.677 45.3004C138.677 44.8082 138.299 44.4304 137.802 44.4304C137.335 44.4304 136.922 44.8082 136.922 45.3004C136.922 45.7628 137.335 46.1655 137.802 46.1655ZM144.348 55.1491C145.74 55.1491 146.287 54.299 146.556 53.8118H146.68V55H148.132V44.8182H146.645V48.6016H146.556C146.287 48.1293 145.78 47.2642 144.358 47.2642C142.514 47.2642 141.156 48.7209 141.156 51.1967C141.156 53.6676 142.494 55.1491 144.348 55.1491ZM144.676 53.8814C143.349 53.8814 142.658 52.7131 142.658 51.1818C142.658 49.6655 143.334 48.527 144.676 48.527C145.974 48.527 146.67 49.5859 146.67 51.1818C146.67 52.7876 145.959 53.8814 144.676 53.8814ZM152.475 55.169C153.738 55.169 154.449 54.5277 154.733 53.956H154.792V55H156.244V49.929C156.244 47.7067 154.494 47.2642 153.281 47.2642C151.899 47.2642 150.626 47.821 150.129 49.2131L151.526 49.5312C151.745 48.9893 152.301 48.4673 153.301 48.4673C154.26 48.4673 154.752 48.9695 154.752 49.8345V49.8693C154.752 50.4112 154.196 50.4013 152.824 50.5604C151.377 50.7294 149.895 51.1072 149.895 52.8423C149.895 54.3438 151.024 55.169 152.475 55.169ZM152.799 53.9759C151.958 53.9759 151.352 53.598 151.352 52.8622C151.352 52.0668 152.058 51.7834 152.918 51.669C153.4 51.6044 154.544 51.4751 154.757 51.2614V52.2457C154.757 53.1506 154.037 53.9759 152.799 53.9759ZM161.858 47.3636H160.213V46.6776C160.213 46.0014 160.491 45.6335 161.217 45.6335C161.525 45.6335 161.744 45.7031 161.883 45.7479L162.231 44.5447C162.022 44.4652 161.59 44.3409 160.988 44.3409C159.78 44.3409 158.721 45.0469 158.721 46.4787V47.3636H157.543V48.5568H158.721V55H160.213V48.5568H161.858V47.3636ZM163.392 55H164.878V47.3636H163.392V55ZM164.143 46.1854C164.655 46.1854 165.082 45.7876 165.082 45.3004C165.082 44.8132 164.655 44.4105 164.143 44.4105C163.626 44.4105 163.203 44.8132 163.203 45.3004C163.203 45.7876 163.626 46.1854 164.143 46.1854ZM169.811 47.2095C168.146 47.2095 166.968 48.0298 166.63 49.2727L168.037 49.5263C168.305 48.8054 168.951 48.4375 169.797 48.4375C171.069 48.4375 171.924 49.2628 171.964 50.7344H166.535V51.2614C166.535 54.0206 168.186 55.0994 169.916 55.0994C172.044 55.0994 173.446 53.4787 173.446 51.1321C173.446 48.7607 172.064 47.2095 169.811 47.2095ZM171.959 51.848C171.9 52.9318 171.114 53.8714 169.906 53.8714C168.752 53.8714 167.997 53.0163 167.992 51.848H171.959ZM180.817 49.228C180.509 48.0398 179.579 47.2642 177.929 47.2642C176.204 47.2642 174.981 48.174 174.981 49.5263C174.981 50.6101 175.637 51.331 177.069 51.6491L178.361 51.9325C179.097 52.0966 179.44 52.4247 179.44 52.902C179.44 53.4936 178.809 53.956 177.834 53.956C176.944 53.956 176.373 53.5732 176.194 52.8224L174.757 53.0412C175.006 54.3935 176.129 55.1541 177.844 55.1541C179.689 55.1541 180.966 54.1747 180.966 52.7926C180.966 51.7138 180.28 51.0476 178.878 50.7244L177.665 50.446C176.825 50.2472 176.462 49.9638 176.467 49.4467C176.462 48.8601 177.099 48.4425 177.944 48.4425C178.868 48.4425 179.296 48.9545 179.47 49.4666L180.817 49.228ZM182.601 55H184.087V47.3636H182.601V55ZM183.352 46.1854C183.864 46.1854 184.291 45.7876 184.291 45.3004C184.291 44.8132 183.864 44.4105 183.352 44.4105C182.835 44.4105 182.412 44.8132 182.412 45.3004C182.412 45.7876 182.835 46.1854 183.352 46.1854ZM198.13 44.8182H196.608V52.2955H196.514L191.333 44.8182H189.912V55H191.448V47.5327H191.542L196.718 55H198.13V44.8182ZM202.474 55.169C203.736 55.169 204.447 54.5277 204.731 53.956H204.79V55H206.242V49.929C206.242 47.7067 204.492 47.2642 203.279 47.2642C201.897 47.2642 200.624 47.821 200.127 49.2131L201.524 49.5312C201.743 48.9893 202.3 48.4673 203.299 48.4673C204.258 48.4673 204.751 48.9695 204.751 49.8345V49.8693C204.751 50.4112 204.194 50.4013 202.822 50.5604C201.375 50.7294 199.893 51.1072 199.893 52.8423C199.893 54.3438 201.022 55.169 202.474 55.169ZM202.797 53.9759C201.956 53.9759 201.35 53.598 201.35 52.8622C201.35 52.0668 202.056 51.7834 202.916 51.669C203.398 51.6044 204.542 51.4751 204.756 51.2614V52.2457C204.756 53.1506 204.035 53.9759 202.797 53.9759ZM208.063 55H214.193V53.7074H210.076V53.6378L214.054 48.4474V47.3636H208.197V48.6562H212.199V48.7259L208.063 53.9808V55ZM215.947 55H217.433V47.3636H215.947V55ZM216.697 46.1854C217.209 46.1854 217.637 45.7876 217.637 45.3004C217.637 44.8132 217.209 44.4105 216.697 44.4105C216.18 44.4105 215.758 44.8132 215.758 45.3004C215.758 45.7876 216.18 46.1854 216.697 46.1854ZM219.433 55H220.919V50.3366C220.919 49.3374 221.69 48.6165 222.744 48.6165C223.052 48.6165 223.4 48.6712 223.52 48.706V47.2841C223.37 47.2642 223.077 47.2493 222.888 47.2493C221.993 47.2493 221.228 47.7564 220.949 48.5767H220.87V47.3636H219.433V55ZM226.292 44.8182H224.806V55H226.292V44.8182ZM228.292 55H229.779V47.3636H228.292V55ZM229.043 46.1854C229.555 46.1854 229.983 45.7876 229.983 45.3004C229.983 44.8132 229.555 44.4105 229.043 44.4105C228.526 44.4105 228.103 44.8132 228.103 45.3004C228.103 45.7876 228.526 46.1854 229.043 46.1854ZM232.718 57.8636C233.946 57.8636 234.722 57.2223 235.164 56.0192L238.321 47.3786L236.715 47.3636L234.781 53.2898H234.702L232.768 47.3636H231.177L233.971 55.0994L233.787 55.6065C233.409 56.6207 232.877 56.7053 232.062 56.4815L231.704 57.6996C231.883 57.7791 232.271 57.8636 232.718 57.8636ZM239.722 55H241.208V47.3636H239.722V55ZM240.473 46.1854C240.985 46.1854 241.412 45.7876 241.412 45.3004C241.412 44.8132 240.985 44.4105 240.473 44.4105C239.956 44.4105 239.533 44.8132 239.533 45.3004C239.533 45.7876 239.956 46.1854 240.473 46.1854Z" fill="#050F21"/>
</svg>
