<svg width="24" height="21" viewBox="0 0 24 21" fill="none" xmlns="http://www.w3.org/2000/svg">
<path d="M21.3438 0.3125H2.65625C1.44336 0.3125 0.5 1.30078 0.5 2.46875V18.2812C0.5 19.4941 1.44336 20.4375 2.65625 20.4375H21.3438C22.5117 20.4375 23.5 19.4941 23.5 18.2812V2.46875C23.5 1.30078 22.5117 0.3125 21.3438 0.3125ZM2.65625 3.00781C2.65625 2.73828 2.88086 2.46875 3.19531 2.46875H4.99219C5.26172 2.46875 5.53125 2.73828 5.53125 3.00781V4.08594C5.53125 4.40039 5.26172 4.625 4.99219 4.625H3.19531C2.88086 4.625 2.65625 4.40039 2.65625 4.08594V3.00781ZM21.3438 18.0117C21.3438 18.1914 21.209 18.2812 21.0742 18.2812H2.92578C2.74609 18.2812 2.65625 18.1914 2.65625 18.0117V6.42188H21.3438V18.0117ZM21.3438 4.08594C21.3438 4.40039 21.0742 4.625 20.8047 4.625H8.22656C7.91211 4.625 7.6875 4.40039 7.6875 4.08594V3.00781C7.6875 2.73828 7.91211 2.46875 8.22656 2.46875H20.8047C21.0742 2.46875 21.3438 2.73828 21.3438 3.00781V4.08594Z" fill="#1D458A"/>
</svg>
