<svg width="20" height="20" viewBox="0 0 20 20" fill="none" xmlns="http://www.w3.org/2000/svg">
<path d="M16.8906 15.5742L13.582 12.2656C13.5 12.2109 13.418 12.1562 13.3359 12.1562H12.9805C13.8281 11.1719 14.375 9.85938 14.375 8.4375C14.375 5.32031 11.8047 2.75 8.6875 2.75C5.54297 2.75 3 5.32031 3 8.4375C3 11.582 5.54297 14.125 8.6875 14.125C10.1094 14.125 11.3945 13.6055 12.4062 12.7578V13.1133C12.4062 13.1953 12.4336 13.2773 12.4883 13.3594L15.7969 16.668C15.9336 16.8047 16.1523 16.8047 16.2617 16.668L16.8906 16.0391C17.0273 15.9297 17.0273 15.7109 16.8906 15.5742ZM8.6875 12.8125C6.25391 12.8125 4.3125 10.8711 4.3125 8.4375C4.3125 6.03125 6.25391 4.0625 8.6875 4.0625C11.0938 4.0625 13.0625 6.03125 13.0625 8.4375C13.0625 10.8711 11.0938 12.8125 8.6875 12.8125Z" fill="#050F21"/>
</svg>
